<svg xmlns="http://www.w3.org/2000/svg" viewBox="0 0 1378 238" aria-label="ARMRA Quest">
  <g transform="translate(44, 44) scale(0.18752)" fill="#0E1200">
    <path d="M3681.1.4h-53.4l-315.4,735.4c-2.5,5.8-21.9,41.8-55.6,41.8s-57-19.8-57-83.2l-.4-693.8h-293.5c-91.7,0-307.3,9.2-307.3,211.9s221.6,217.1,268.8,217.8v5.1c-28.1,1.5-52.8,5.7-74.1,12.5-53.4,16.8-89.6,47-108.7,90.4,0,0-48.4,107.9-72.4,160.7-27.4,60.2-54.4,78.6-89.7,78.6s-65.4-3.7-65.4-80V1.1c.1,0-54.9,0-54.9,0-45.8,0-82,7.8-104.1,23.5-22.1,15.6-39.2,36.5-56.3,73.8l-201.7,462.6h-12.6l-239.9-462.6c-16.8-32-36.8-56.2-60.1-72.7-23.2-16.4-54.7-24.6-94.4-24.6h-81.8v690.6c0,51.7-12.2,85.8-61.5,85.8s-62.3-18.5-89.7-78.6c-24-52.8-59.3-131.7-69.3-153.9-1.9-4.3-3-6.8-3-6.8-19.1-43.5-55.3-73.6-108.7-90.4-21.3-6.8-46-11-74.1-12.5v-5.1c47.3-.8,268.8-15.1,268.8-217.8S1197.9.5,1106.2.5h-293.5l-.5,693.8c0,63.4-17.8,83.2-57,83.2s-53.1-36-55.6-41.8L384.2.4h-53.4L0,801.8h46.1l92.8-223.8h279.2l54.1,126.6c41.6,88.8,81.7,97.2,153.3,97.2l118.6.2h140.9c7.8,0,25-1.9,35.4-4.9,63.5-18.6,81.2-87.6,81.2-129.8v-216h67.8c3.9,0,7.4,2.3,9,5.8l111.8,247.3c7.3,16.3,15.7,30.6,25.1,42.8,28,36.5,65.5,54.8,112.5,54.8h178c83.2,0,87-66.4,87-109.7V168.2h12.5l328.1,629.4c1.7,3.2,5,5.3,8.7,5.3h32.2c3.9,0,7.4-2.3,9-5.9l274.3-628.8h10.5v502.6c0,50.3,26.7,131.3,117.8,131.3h298.3c47,0,84.4-18.3,112.5-54.8,9.4-12.2,17.8-26.4,25.1-42.8l111.8-247.3c1.6-3.5,5.1-5.8,9-5.8h67.8v216c0,42.2,17.7,111.2,81.2,129.8,10.5,3,27.6,4.9,35.4,4.9h140.9l118.6-.2c71.6,0,111.7-8.5,153.3-97.2l54.1-126.6h279.2l92.8,223.8h46.1L3681.1.4ZM154.2,538.7l119.3-287.8h9.5l119.3,287.8h-248.1,0ZM1047.2,412.1h-45.6l-.2-372.3h42.5c72.7,0,174.8,14.4,174.8,172.6s-96.4,199.8-171.6,199.8h0ZM3010.3,412.1h-45.6c-75.2,0-171.6-41.6-171.6-199.7s102.1-172.6,174.8-172.6h42.5v372.3h-.2.1ZM3609.6,538.7l119.3-287.8h9.5l119.3,287.8h-248.1Z"/>
    <path d="M3805.9,51.1c0-29.3,22.2-51.1,50.4-51.1s50.2,21.7,50.2,51.1-22.2,51.1-50.2,51.1-50.4-21.7-50.4-51.1ZM3896.8,51.1c0-24.5-17.3-42-40.5-42s-40.7,17.5-40.7,42,17.3,42,40.7,42,40.5-17.3,40.5-42ZM3836.5,23.4h23.2c11.2,0,18.6,5.7,18.6,15.6s-4,12-10.1,13.5v.2c12.4,2.3,7.8,23.6,10.8,24.5v.6h-11.2c-2.3-2.3,2.9-21.1-11.6-21.1h-9.1v21.1h-10.6V23.4h0ZM3847,47.7h9.3c5.7,0,11.2-.4,11.2-7.6s-5.5-7.4-11.2-7.4h-9.3v15Z"/>
  </g>
  <rect x="860.33" y="74" width="7" height="90" rx="3.5" fill="#E6FF7F"/>
  <g transform="translate(920.861, 150.07) scale(0.10496, -0.10496)" fill="#E6FF7F">
    <path d="M562 -120 472 1Q432 -7 394 -7Q295 -7 212.5 39.0Q130 85 81.5 167.5Q33 250 33 353Q33 456 81.5 538.0Q130 620 212.5 666.0Q295 712 394 712Q493 712 575.5 666.0Q658 620 705.5 538.0Q753 456 753 353Q753 263 716.5 188.5Q680 114 615 65L769 -120ZM394 149Q478 149 528.5 205.0Q579 261 579 353Q579 446 528.5 501.5Q478 557 394 557Q309 557 258.5 502.0Q208 447 208 353Q208 260 258.5 204.5Q309 149 394 149Z"/>
    <path transform="translate(968, 0)" d="M230 702V282Q230 219 261.0 185.0Q292 151 352 151Q412 151 444.0 185.0Q476 219 476 282V702H647V283Q647 189 607.0 124.0Q567 59 499.5 26.0Q432 -7 349 -7Q266 -7 200.5 25.5Q135 58 97.0 123.5Q59 189 59 283V702Z"/>
    <path transform="translate(1853, 0)" d="M233 565V423H462V291H233V137H492V0H62V702H492V565Z"/>
    <path transform="translate(2574, 0)" d="M42 210H224Q228 171 251.0 150.5Q274 130 311 130Q349 130 371.0 147.5Q393 165 393 196Q393 222 375.5 239.0Q358 256 332.5 267.0Q307 278 260 292Q192 313 149.0 334.0Q106 355 75.0 396.0Q44 437 44 503Q44 601 115.0 656.5Q186 712 300 712Q416 712 487.0 656.5Q558 601 563 502H378Q376 536 353.0 555.5Q330 575 294 575Q263 575 244.0 558.5Q225 542 225 511Q225 477 257.0 458.0Q289 439 357 417Q425 394 467.5 373.0Q510 352 541.0 312.0Q572 272 572 209Q572 149 541.5 100.0Q511 51 453.0 22.0Q395 -7 316 -7Q239 -7 178.0 18.0Q117 43 80.5 92.0Q44 141 42 210Z"/>
    <path transform="translate(3369, 0)" d="M567 702V565H381V0H210V565H24V702Z"/>
  </g>
</svg>
