<svg xmlns="http://www.w3.org/2000/svg" viewBox="0 0 512 512" aria-label="ARMRA Quest">
  <rect x="0" y="0" width="512" height="512" rx="118" fill="#E6FF7F"/>
  <g transform="translate(85.362, 381.957) scale(0.42553, -0.42553)" fill="#0E1200">
    <path d="M562 -120 472 1Q432 -7 394 -7Q295 -7 212.5 39.0Q130 85 81.5 167.5Q33 250 33 353Q33 456 81.5 538.0Q130 620 212.5 666.0Q295 712 394 712Q493 712 575.5 666.0Q658 620 705.5 538.0Q753 456 753 353Q753 263 716.5 188.5Q680 114 615 65L769 -120ZM394 149Q478 149 528.5 205.0Q579 261 579 353Q579 446 528.5 501.5Q478 557 394 557Q309 557 258.5 502.0Q208 447 208 353Q208 260 258.5 204.5Q309 149 394 149Z"/>
  </g>
</svg>
